<svg width="148" height="48" viewBox="0 0 148 48" fill="none" xmlns="http://www.w3.org/2000/svg">
<path d="M73.2498 38.1801L77.3867 42.317L87.0535 42.3223H138.885C139.022 39.2117 141.525 36.7034 144.64 36.5672V10.3789C141.53 10.2428 139.022 7.73969 138.885 4.6239H77.4129L76.6012 5.19993L76.6221 5.22088L72.967 8.87603L68.8301 4.73911H8.02774C7.89159 7.84965 5.38849 10.358 2.27271 10.4941V36.6877C5.38325 36.8238 7.89159 39.3269 8.02774 42.4427H69.0709L69.626 41.8772L69.5946 41.8457L73.2498 38.1906V38.1801Z" fill="black" fill-opacity="0.5"/>
<path d="M73.25 38.1802L77.3869 42.3276V42.3171L73.25 38.1802Z" fill="black" fill-opacity="0.5"/>
<path d="M69.5947 41.8406L69.6262 41.872L73.2499 38.1802L69.5947 41.8406Z" fill="black" fill-opacity="0.5"/>
<path d="M76.6222 5.21566L76.6013 5.19995L72.967 8.87082L76.6222 5.21566Z" fill="black" fill-opacity="0.5"/>
<path d="M145.171 9.85603C142.137 9.85603 139.67 7.39984 139.67 4.38046V4.11972H77.8669L73.7282 0L70.0714 3.63995L70.4434 4.0102L73.7334 0.735291L77.0444 4.03106L77.1334 4.11972L77.6573 4.6412H139.156C139.293 7.73881 141.797 10.2367 144.914 10.3723V36.4569C141.802 36.5925 139.293 39.0852 139.156 42.188H77.6311L73.4924 38.063L69.8357 41.703L70.2077 42.0732L73.4977 38.7983L76.8086 42.0941L76.8977 42.1828H76.9029V42.188L77.4268 42.7095H139.68V42.4487C139.68 39.4293 142.148 36.9731 145.181 36.9731H145.443V9.85603H145.181H145.171Z" fill="white"/>
<path d="M76.7407 43.6318L76.5576 43.4468L76.3902 43.2776L73.1105 46.5866L69.7157 43.1613H69.7105L69.1874 42.6327H8.00314C7.86714 39.4929 5.36683 36.9609 2.25452 36.8235V10.3832C5.3616 10.2457 7.86714 7.71906 8.00314 4.57392H68.7376L72.8699 8.74982L76.521 5.06023L76.5 5.03908L76.317 4.85407L76.1496 4.68492L72.8699 7.99921L69.4751 4.56863H69.4647L68.9416 4.04004H7.48529V4.30434C7.48529 7.3649 5.0216 9.85458 1.99298 9.85458H1.73145V37.3415H1.99298C5.0216 37.3415 7.48529 39.8312 7.48529 42.8917V43.156H68.9782L73.1105 47.3267L76.7616 43.6423L76.7407 43.6212V43.6318Z" fill="white"/>
<path d="M2.60729 21.3547L9.81163 23.3748L2.60729 25.3948L0 23.3748L2.60729 21.3547Z" fill="#D9D9D9"/>
<path d="M145.394 21.5667L138.188 23.2981L145.394 25.0296L148 23.2981L145.394 21.5667Z" fill="#D9D9D9"/>
<path d="M43.5633 25.42C43.5633 25.1 43.5913 24.8 43.6473 24.52C43.7033 24.272 43.7313 24.088 43.7313 23.968C43.7393 23.904 43.7353 23.828 43.7193 23.74C43.7113 23.644 43.6993 23.528 43.6833 23.392C43.6673 23.28 43.6553 23.188 43.6473 23.116C43.6393 23.036 43.6353 22.976 43.6353 22.936C43.6353 22.8 43.6553 22.64 43.6953 22.456C43.7113 22.352 43.7233 22.264 43.7313 22.192C43.7473 22.12 43.7553 22.056 43.7553 22C43.7153 21.472 43.6273 21.064 43.4913 20.776C43.4193 20.624 43.2873 20.512 43.0953 20.44C43.0393 20.424 42.9873 20.4 42.9393 20.368C42.6833 20.256 42.5553 20.152 42.5553 20.056C42.5553 19.928 42.6873 19.868 42.9513 19.876H43.0353C43.0833 19.876 43.1753 19.864 43.3113 19.84C43.4633 19.816 43.5753 19.804 43.6473 19.804C43.7993 19.804 43.9353 19.82 44.0553 19.852C44.1593 19.876 44.2473 19.888 44.3193 19.888C44.3913 19.888 44.4753 19.884 44.5713 19.876C44.6673 19.868 44.7713 19.856 44.8833 19.84C45.0193 19.824 45.1473 19.812 45.2673 19.804C45.3873 19.796 45.4993 19.792 45.6033 19.792C46.1393 19.792 46.5313 19.82 46.7793 19.876L46.9233 19.924L47.0913 19.996C47.1233 20.004 47.1593 20.016 47.1993 20.032C47.2393 20.048 47.2913 20.064 47.3553 20.08L47.5353 20.14C47.8633 20.26 48.1313 20.476 48.3393 20.788C48.3793 20.86 48.4073 20.944 48.4233 21.04C48.4233 21.112 48.4273 21.16 48.4353 21.184L48.4833 21.328C48.5393 21.448 48.5673 21.552 48.5673 21.64C48.5673 21.888 48.5073 22.16 48.3873 22.456C48.3233 22.64 48.1793 22.816 47.9553 22.984C47.8753 23.048 47.7753 23.108 47.6553 23.164C47.4393 23.284 47.3313 23.38 47.3313 23.452C47.3313 23.5 47.4033 23.54 47.5473 23.572C47.6593 23.604 47.7633 23.648 47.8593 23.704C47.9633 23.752 48.0673 23.808 48.1713 23.872C48.2753 23.936 48.3633 24 48.4353 24.064C48.5153 24.128 48.5833 24.192 48.6393 24.256L48.7953 24.46L48.9153 24.616C48.9713 24.68 49.0233 24.768 49.0713 24.88C49.1513 25.064 49.1913 25.312 49.1913 25.624C49.1913 26.688 48.5993 27.416 47.4153 27.808C47.3673 27.824 47.2753 27.84 47.1393 27.856C47.0833 27.864 47.0353 27.868 46.9953 27.868C46.9553 27.868 46.9233 27.872 46.8993 27.88C46.7953 27.896 46.6793 27.92 46.5513 27.952C46.2793 28.016 46.1113 28.048 46.0473 28.048C45.9593 28.048 45.8713 28.032 45.7833 28C45.6633 27.96 45.5633 27.94 45.4833 27.94C45.3153 27.924 45.0433 27.936 44.6673 27.976C44.4353 28 44.2833 28.012 44.2113 28.012C43.9953 28.012 43.7873 28 43.5873 27.976C43.4193 27.952 43.2873 27.94 43.1913 27.94C43.1113 27.94 43.0313 27.952 42.9513 27.976C42.8553 28 42.7753 28.012 42.7113 28.012C42.5753 28.012 42.5073 27.924 42.5073 27.748C42.5073 27.66 42.6393 27.56 42.9033 27.448L43.0593 27.388L43.1673 27.34C43.4313 27.22 43.5633 27.036 43.5633 26.788C43.5633 26.66 43.5753 26.524 43.5993 26.38C43.6313 26.26 43.6473 26.152 43.6473 26.056C43.6473 26 43.6353 25.904 43.6113 25.768C43.5953 25.688 43.5833 25.62 43.5753 25.564C43.5673 25.508 43.5633 25.46 43.5633 25.42ZM46.2993 23.164C46.5393 23.076 46.7473 22.876 46.9233 22.564C46.9873 22.444 47.0153 22.296 47.0073 22.12V21.892C47.0073 21.828 47.0113 21.776 47.0193 21.736C47.0273 21.696 47.0313 21.664 47.0313 21.64C47.0393 21.608 47.0433 21.576 47.0433 21.544C47.0433 21.288 46.9153 21.04 46.6593 20.8C46.6193 20.768 46.5713 20.736 46.5153 20.704C46.4593 20.672 46.3913 20.64 46.3113 20.608L46.0953 20.5C45.9353 20.412 45.7913 20.368 45.6633 20.368C45.5513 20.368 45.4273 20.432 45.2913 20.56C45.2033 20.64 45.1633 20.852 45.1713 21.196V21.316C45.1713 21.436 45.1513 21.584 45.1113 21.76C45.0713 21.904 45.0513 21.992 45.0513 22.024C45.0513 22.216 45.0993 22.432 45.1953 22.672C45.2513 22.792 45.2793 22.88 45.2793 22.936C45.2793 22.96 45.2753 22.988 45.2673 23.02C45.2673 23.052 45.2633 23.088 45.2553 23.128C45.2393 23.208 45.2313 23.256 45.2313 23.272C45.2313 23.352 45.2753 23.392 45.3633 23.392C45.4273 23.392 45.5473 23.36 45.7233 23.296L45.9633 23.212L46.0953 23.188C46.1673 23.188 46.2353 23.18 46.2993 23.164ZM45.2673 24.016C45.1793 24.064 45.1353 24.284 45.1353 24.676C45.1353 24.772 45.1233 24.908 45.0993 25.084C45.0913 25.148 45.0833 25.208 45.0753 25.264C45.0753 25.312 45.0753 25.352 45.0753 25.384C45.0753 25.456 45.0873 25.544 45.1113 25.648C45.1193 25.696 45.1233 25.736 45.1233 25.768C45.1313 25.8 45.1353 25.824 45.1353 25.84C45.1353 25.928 45.1513 26.008 45.1833 26.08C45.2073 26.152 45.2193 26.212 45.2193 26.26C45.2193 26.388 45.1993 26.504 45.1593 26.608L45.1353 26.656C45.0953 26.736 45.0753 26.8 45.0753 26.848C45.0753 26.896 45.1113 26.948 45.1833 27.004L45.3033 27.112C45.4793 27.312 45.7153 27.412 46.0113 27.412C46.5713 27.412 47.0273 27.16 47.3793 26.656C47.5473 26.416 47.6313 26.112 47.6313 25.744C47.6313 25.464 47.5913 25.24 47.5113 25.072C47.5033 25.056 47.4873 25.036 47.4633 25.012C47.4473 24.98 47.4233 24.944 47.3913 24.904L47.3073 24.784L47.2833 24.748C47.1873 24.58 47.0913 24.448 46.9953 24.352C46.8753 24.232 46.6593 24.128 46.3473 24.04C46.2833 24.024 46.2553 24.016 46.2633 24.016L46.1673 23.992C45.9673 23.936 45.8073 23.908 45.6873 23.908C45.5353 23.908 45.3953 23.944 45.2673 24.016ZM56.7762 27.556C56.5442 27.788 56.3162 27.928 56.0922 27.976C55.9882 28 55.8122 28.024 55.5642 28.048C55.4282 28.064 55.3122 28.076 55.2162 28.084C55.1202 28.1 55.0442 28.116 54.9882 28.132C54.7962 28.18 54.5482 28.204 54.2442 28.204C53.5722 28.204 52.8362 27.904 52.0362 27.304C51.8282 27.176 51.6602 26.972 51.5322 26.692C51.3402 26.3 51.2442 25.86 51.2442 25.372C51.2442 25.316 51.2322 25.256 51.2082 25.192C51.1922 25.128 51.1842 25.092 51.1842 25.084C51.1842 25.092 51.1922 25.056 51.2082 24.976C51.2242 24.896 51.2362 24.828 51.2442 24.772C51.2522 24.716 51.2562 24.668 51.2562 24.628C51.2562 24.444 51.2442 24.244 51.2202 24.028C51.1962 23.828 51.1842 23.684 51.1842 23.596C51.1842 23.5 51.1842 23.412 51.1842 23.332C51.1922 23.252 51.2002 23.18 51.2082 23.116C51.2402 22.844 51.2642 22.584 51.2802 22.336C51.2962 22.08 51.3042 21.828 51.3042 21.58C51.3042 21.468 51.2842 21.324 51.2442 21.148L51.2202 21.028C51.1802 20.86 51.1442 20.76 51.1122 20.728C51.0482 20.656 50.8802 20.608 50.6082 20.584C50.2722 20.552 50.1042 20.4 50.1042 20.128C50.1042 19.896 50.2282 19.78 50.4762 19.78C50.5242 19.78 50.5802 19.788 50.6442 19.804C50.7162 19.812 50.7962 19.824 50.8842 19.84C50.9482 19.856 51.0002 19.868 51.0402 19.876C51.0882 19.884 51.1282 19.892 51.1602 19.9C51.3282 19.932 51.4842 19.956 51.6282 19.972C51.7722 19.98 51.9042 19.984 52.0242 19.984C52.3282 19.984 52.5962 19.948 52.8282 19.876C52.8442 19.876 52.8562 19.872 52.8642 19.864C52.9842 19.808 53.1042 19.78 53.2242 19.78C53.3762 19.78 53.5082 19.812 53.6202 19.876C53.7882 19.988 53.8722 20.076 53.8722 20.14C53.8722 20.252 53.7602 20.348 53.5362 20.428C53.5042 20.436 53.4682 20.448 53.4282 20.464C53.3962 20.48 53.3522 20.496 53.2962 20.512L53.0202 20.596C52.8042 20.684 52.7002 20.832 52.7082 21.04C52.7402 21.472 52.7202 21.836 52.6482 22.132C52.6322 22.212 52.6402 22.304 52.6722 22.408C52.7042 22.512 52.7202 22.596 52.7202 22.66C52.7202 22.708 52.7202 22.764 52.7202 22.828C52.7202 22.884 52.7242 22.944 52.7322 23.008C52.7402 23.096 52.7442 23.172 52.7442 23.236C52.7522 23.292 52.7562 23.34 52.7562 23.38C52.7642 23.676 52.7442 23.948 52.6962 24.196C52.6722 24.332 52.6602 24.448 52.6602 24.544C52.6602 24.624 52.6722 24.704 52.6962 24.784C52.7202 24.88 52.7322 24.968 52.7322 25.048V25.204C52.7482 25.66 52.8202 26.024 52.9482 26.296C53.1962 26.792 53.5442 27.116 53.9922 27.268C54.4002 27.404 54.7402 27.472 55.0122 27.472C55.1802 27.472 55.3842 27.4 55.6242 27.256C56.3202 26.864 56.7162 26.308 56.8122 25.588C56.8202 25.572 56.8242 25.548 56.8242 25.516C56.8242 25.476 56.8282 25.436 56.8362 25.396C56.8522 25.316 56.8642 25.244 56.8722 25.18C56.8802 25.116 56.8842 25.064 56.8842 25.024C56.8842 24.936 56.8682 24.86 56.8362 24.796C56.8122 24.74 56.8002 24.696 56.8002 24.664C56.8002 24.48 56.8242 24.236 56.8722 23.932C56.9042 23.748 56.9282 23.584 56.9442 23.44C56.9602 23.288 56.9682 23.16 56.9682 23.056V22.42C56.9682 22.332 56.9522 22.26 56.9202 22.204C56.8962 22.148 56.8842 22.108 56.8842 22.084C56.8842 22.052 56.8842 22.016 56.8842 21.976C56.8922 21.936 56.9002 21.896 56.9082 21.856C56.9482 21.72 56.9602 21.616 56.9442 21.544L56.8962 21.34C56.8242 21.132 56.7922 20.98 56.8002 20.884C56.8162 20.7 56.6802 20.588 56.3922 20.548C56.3122 20.532 56.1962 20.496 56.0442 20.44L55.8162 20.368C55.6722 20.336 55.6002 20.268 55.6002 20.164C55.6002 20.052 55.7402 19.976 56.0202 19.936C56.1962 19.92 56.3602 19.908 56.5122 19.9C56.6722 19.884 56.8282 19.876 56.9802 19.876C57.1162 19.868 57.2442 19.872 57.3642 19.888C57.4842 19.896 57.5882 19.908 57.6762 19.924C57.7802 19.948 57.8562 19.96 57.9042 19.96C57.9922 19.96 58.0842 19.944 58.1802 19.912L58.3602 19.864L58.4922 19.84C58.5882 19.808 58.6722 19.792 58.7442 19.792C58.9122 19.792 58.9962 19.892 58.9962 20.092C58.9962 20.252 58.8682 20.356 58.6122 20.404C58.4362 20.444 58.3282 20.472 58.2882 20.488C57.9202 20.616 57.8082 20.956 57.9522 21.508C58.0242 21.748 58.0242 22.04 57.9522 22.384C57.9122 22.592 57.9242 22.868 57.9882 23.212C58.0282 23.428 57.9962 23.58 57.8922 23.668C57.7882 23.748 57.7362 23.832 57.7362 23.92C57.7362 23.984 57.7362 24.06 57.7362 24.148C57.7362 24.228 57.7402 24.32 57.7482 24.424C57.7562 24.552 57.7602 24.668 57.7602 24.772C57.7602 24.868 57.7602 24.948 57.7602 25.012C57.7602 25.052 57.7602 25.1 57.7602 25.156C57.7682 25.204 57.7762 25.268 57.7842 25.348C57.7922 25.412 57.7962 25.464 57.7962 25.504C57.8042 25.544 57.8082 25.572 57.8082 25.588C57.8082 25.956 57.7042 26.34 57.4962 26.74C57.4082 26.9 57.2362 27.104 56.9802 27.352C56.8842 27.44 56.8162 27.508 56.7762 27.556ZM66.4439 27.808C66.4439 27.984 66.2999 28.072 66.0119 28.072C65.9239 28.072 65.7919 28.048 65.6159 28C65.4159 27.944 65.2679 27.916 65.1719 27.916C65.0919 27.916 64.9879 27.924 64.8599 27.94C64.7399 27.948 64.5999 27.96 64.4399 27.976L64.0799 28.024C63.8479 28.048 63.4999 28.06 63.0359 28.06C62.9719 28.06 62.8799 28.04 62.7599 28C62.6479 27.952 62.5919 27.872 62.5919 27.76C62.5919 27.648 62.6839 27.548 62.8679 27.46C62.8999 27.444 62.9399 27.428 62.9879 27.412C63.0439 27.388 63.1039 27.364 63.1679 27.34C63.2479 27.308 63.3159 27.28 63.3719 27.256C63.4279 27.232 63.4719 27.212 63.5039 27.196C63.7039 27.1 63.7959 26.936 63.7799 26.704C63.7799 26.664 63.7799 26.624 63.7799 26.584C63.7799 26.536 63.7759 26.484 63.7679 26.428C63.7599 26.244 63.7559 26.092 63.7559 25.972C63.7639 25.844 63.7759 25.74 63.7919 25.66C63.8559 25.252 63.7919 24.684 63.5999 23.956C63.5039 23.58 63.2239 23.112 62.7599 22.552L62.6039 22.36C62.5639 22.32 62.5199 22.268 62.4719 22.204C62.4239 22.14 62.3679 22.064 62.3039 21.976L61.9319 21.472C61.8039 21.304 61.6919 21.16 61.5959 21.04C61.5079 20.92 61.4359 20.82 61.3799 20.74C61.2039 20.492 60.9919 20.368 60.7439 20.368C60.6239 20.368 60.5399 20.36 60.4919 20.344C60.3959 20.312 60.3479 20.248 60.3479 20.152C60.3479 20.072 60.3879 20.004 60.4679 19.948C60.4999 19.932 60.5359 19.916 60.5759 19.9C60.6159 19.884 60.6639 19.872 60.7199 19.864C60.7359 19.864 60.7559 19.864 60.7799 19.864C60.8119 19.864 60.8479 19.86 60.8879 19.852C61.0479 19.836 61.1839 19.824 61.2959 19.816C61.4079 19.808 61.4959 19.804 61.5599 19.804C61.5919 19.804 61.6279 19.808 61.6679 19.816C61.7159 19.816 61.7719 19.82 61.8359 19.828C61.8919 19.836 61.9359 19.84 61.9679 19.84C62.0079 19.84 62.0359 19.84 62.0519 19.84C62.2359 19.84 62.4159 19.82 62.5919 19.78C62.6879 19.748 62.8119 19.732 62.9639 19.732C63.1719 19.732 63.3919 19.772 63.6239 19.852C63.7839 19.9 63.8639 19.996 63.8639 20.14C63.8639 20.372 63.7719 20.488 63.5879 20.488C63.5479 20.488 63.5159 20.484 63.4919 20.476C63.4519 20.468 63.4199 20.464 63.3959 20.464C63.3719 20.464 63.3519 20.464 63.3359 20.464C63.2319 20.464 63.1799 20.512 63.1799 20.608C63.1799 20.656 63.2159 20.74 63.2879 20.86L63.3719 20.992C63.4119 21.072 63.4479 21.14 63.4799 21.196C63.5119 21.252 63.5399 21.3 63.5639 21.34L63.5999 21.4C63.6559 21.504 63.7119 21.592 63.7679 21.664C63.8239 21.728 63.8839 21.78 63.9479 21.82C64.1239 21.956 64.2679 22.172 64.3799 22.468L64.4519 22.672C64.4599 22.688 64.4679 22.708 64.4759 22.732C64.4839 22.748 64.4919 22.772 64.4999 22.804C64.5239 22.9 64.5479 22.964 64.5719 22.996C64.6279 23.076 64.6759 23.116 64.7159 23.116C64.7639 23.116 64.8239 23.076 64.8959 22.996C65.4079 22.396 65.8399 21.788 66.1919 21.172L66.2159 21.136L66.2519 21.088C66.4119 20.8 66.4639 20.628 66.4079 20.572C66.3439 20.5 66.1839 20.444 65.9279 20.404C65.7439 20.364 65.6519 20.26 65.6519 20.092C65.6519 19.86 65.8159 19.744 66.1439 19.744C66.1599 19.744 66.1839 19.748 66.2159 19.756C66.2559 19.756 66.2999 19.76 66.3479 19.768C66.4839 19.8 66.6159 19.824 66.7439 19.84C66.8799 19.848 67.0039 19.852 67.1159 19.852H67.3439C67.6319 19.844 67.8479 19.844 67.9919 19.852C68.0559 19.86 68.1199 19.856 68.1839 19.84C68.2239 19.832 68.2639 19.828 68.3039 19.828C68.3439 19.828 68.3839 19.828 68.4239 19.828C68.5759 19.828 68.6519 19.888 68.6519 20.008C68.6519 20.112 68.6159 20.18 68.5439 20.212C68.5439 20.212 68.5199 20.22 68.4719 20.236C68.3839 20.268 68.3159 20.3 68.2679 20.332L67.9799 20.524C67.8439 20.612 67.7279 20.688 67.6319 20.752C67.5359 20.808 67.4599 20.856 67.4039 20.896C67.1639 21.08 66.9879 21.316 66.8759 21.604C66.7319 22.02 66.5119 22.324 66.2159 22.516C66.1439 22.564 66.0599 22.66 65.9639 22.804L65.8439 22.972C65.8279 22.988 65.8079 23.012 65.7839 23.044C65.7679 23.068 65.7439 23.1 65.7119 23.14C65.6559 23.22 65.6039 23.288 65.5559 23.344C65.5159 23.392 65.4799 23.436 65.4479 23.476C65.3359 23.588 65.2799 23.736 65.2799 23.92C65.2799 24.008 65.2759 24.104 65.2679 24.208C65.2599 24.312 65.2479 24.432 65.2319 24.568C65.2159 24.728 65.1999 24.864 65.1839 24.976C65.1759 25.08 65.1719 25.164 65.1719 25.228C65.1719 25.268 65.1839 25.328 65.2079 25.408C65.2559 25.552 65.2799 25.676 65.2799 25.78C65.2799 25.836 65.2799 25.904 65.2799 25.984C65.2799 26.056 65.2759 26.144 65.2679 26.248V26.596C65.2679 27.036 65.4719 27.32 65.8799 27.448L65.9759 27.472C66.2879 27.56 66.4439 27.672 66.4439 27.808ZM75.8879 22.072C75.9039 22.352 75.9039 22.744 75.8879 23.248C75.8799 23.424 75.8759 23.576 75.8759 23.704C75.8759 23.824 75.8759 23.928 75.8759 24.016C75.8839 24.216 75.9079 24.412 75.9479 24.604C75.9879 24.964 75.9839 25.26 75.9359 25.492C75.8959 25.66 75.8879 25.888 75.9119 26.176C75.9199 26.24 75.9239 26.292 75.9239 26.332C75.9239 26.372 75.9239 26.4 75.9239 26.416C75.9239 26.496 75.9399 26.588 75.9719 26.692C75.9799 26.716 75.9839 26.74 75.9839 26.764C76.0399 26.972 76.0919 27.108 76.1399 27.172C76.1719 27.212 76.2759 27.252 76.4519 27.292L76.8479 27.328C76.8879 27.336 76.9199 27.34 76.9439 27.34C76.9679 27.34 76.9879 27.34 77.0039 27.34C77.1799 27.348 77.2679 27.428 77.2679 27.58C77.2679 27.74 77.1439 27.836 76.8959 27.868L76.7039 27.904C76.6079 27.92 76.5159 27.936 76.4279 27.952C76.3479 27.96 76.2719 27.964 76.1999 27.964H74.2079C74.0399 27.964 73.9279 27.948 73.8719 27.916C73.7359 27.828 73.6679 27.744 73.6679 27.664C73.6679 27.584 73.7279 27.5 73.8479 27.412C73.9519 27.348 74.1079 27.284 74.3159 27.22C74.4919 27.172 74.6319 27.096 74.7359 26.992C74.8879 26.832 74.9639 26.612 74.9639 26.332C74.9639 26.252 74.9079 26.192 74.7959 26.152C74.6839 26.112 74.6279 26.068 74.6279 26.02C74.6279 25.972 74.6559 25.924 74.7119 25.876L74.7479 25.84C74.9239 25.688 75.0119 25.392 75.0119 24.952V24.664C75.0119 24.648 75.0039 24.608 74.9879 24.544C74.9799 24.512 74.9719 24.488 74.9639 24.472C74.9639 24.448 74.9639 24.428 74.9639 24.412C74.9639 24.38 74.9679 24.344 74.9759 24.304C75.0079 24.152 75.0279 24.012 75.0359 23.884C75.0519 23.748 75.0639 23.62 75.0719 23.5C75.0879 23.204 75.0879 22.9 75.0719 22.588C75.0559 22.276 75.0279 21.948 74.9879 21.604C74.9719 21.468 74.9479 21.328 74.9159 21.184C74.8839 21.04 74.8399 20.892 74.7839 20.74C74.7279 20.596 74.6799 20.508 74.6399 20.476C74.5599 20.404 74.4239 20.364 74.2319 20.356C74.2079 20.348 74.1799 20.344 74.1479 20.344C73.9559 20.32 73.8119 20.288 73.7159 20.248C73.6279 20.208 73.5839 20.156 73.5839 20.092C73.5839 19.956 73.7039 19.888 73.9439 19.888C74.0079 19.888 74.0759 19.888 74.1479 19.888C74.2199 19.888 74.2999 19.884 74.3879 19.876C74.6279 19.852 74.8399 19.84 75.0239 19.84C75.3119 19.84 75.5919 19.88 75.8639 19.96C75.9439 19.984 76.0159 20.032 76.0799 20.104C76.1199 20.144 76.1479 20.168 76.1639 20.176L76.2719 20.26L76.4039 20.344L76.4759 20.38C76.5159 20.388 76.5559 20.412 76.5959 20.452C76.6119 20.468 76.6239 20.496 76.6319 20.536C76.6719 20.648 76.7159 20.724 76.7639 20.764L76.8839 20.872C77.0119 20.968 77.0999 21.04 77.1479 21.088C77.2759 21.216 77.4079 21.356 77.5439 21.508C77.6799 21.66 77.8199 21.828 77.9639 22.012C78.0199 22.076 78.0799 22.148 78.1439 22.228L78.8039 23.02C78.8279 23.044 78.8599 23.06 78.8999 23.068C78.9559 23.084 78.9999 23.104 79.0319 23.128C79.0719 23.152 79.1039 23.172 79.1279 23.188C79.2159 23.252 79.3279 23.388 79.4639 23.596C79.4959 23.644 79.5319 23.716 79.5719 23.812C79.5879 23.86 79.6039 23.9 79.6199 23.932C79.6359 23.964 79.6519 23.988 79.6679 24.004C79.7559 24.124 79.9039 24.288 80.1119 24.496L80.4239 24.82L80.5199 24.928C80.8479 25.304 81.0319 25.492 81.0719 25.492C81.1359 25.492 81.1679 25.428 81.1679 25.3C81.1679 25.26 81.1479 25.128 81.1079 24.904C81.0759 24.784 81.0599 24.648 81.0599 24.496C81.0599 24.424 81.0639 24.34 81.0719 24.244C81.0879 24.148 81.1039 24.044 81.1199 23.932C81.1679 23.66 81.1919 23.46 81.1919 23.332C81.1919 23.3 81.1879 23.264 81.1799 23.224C81.1799 23.176 81.1759 23.12 81.1679 23.056C81.1599 22.976 81.1519 22.908 81.1439 22.852C81.1439 22.788 81.1439 22.736 81.1439 22.696C81.1439 22.648 81.1639 22.576 81.2039 22.48C81.2439 22.36 81.2639 22.268 81.2639 22.204C81.2639 22.172 81.2479 22.128 81.2159 22.072C81.1679 21.968 81.1439 21.88 81.1439 21.808V21.688C81.1519 21.352 81.1399 21.112 81.1079 20.968C81.0759 20.856 80.9519 20.704 80.7359 20.512L80.6279 20.404L80.5079 20.32C80.3639 20.24 80.2919 20.16 80.2919 20.08C80.2919 20.016 80.3599 19.976 80.4959 19.96C80.7919 19.936 81.0559 19.912 81.2879 19.888C81.5199 19.856 81.7279 19.824 81.9119 19.792C81.9279 19.784 81.9439 19.78 81.9599 19.78C81.9759 19.78 81.9959 19.776 82.0199 19.768C82.1879 19.72 82.3159 19.696 82.4039 19.696C82.6439 19.696 82.8319 19.72 82.9679 19.768C83.1359 19.832 83.2199 19.932 83.2199 20.068C83.2199 20.196 83.1399 20.26 82.9799 20.26C82.7399 20.26 82.4959 20.384 82.2479 20.632C82.1119 20.8 82.0479 20.98 82.0559 21.172C82.0559 21.188 82.0559 21.212 82.0559 21.244C82.0559 21.268 82.0599 21.3 82.0679 21.34C82.0919 21.5 82.1039 21.608 82.1039 21.664C82.1039 21.824 82.0799 21.98 82.0319 22.132C82.0079 22.22 81.9959 22.272 81.9959 22.288C81.9959 22.304 81.9959 22.328 81.9959 22.36C82.0039 22.384 82.0119 22.416 82.0199 22.456C82.0679 22.696 82.0919 22.884 82.0919 23.02C82.0919 23.148 82.0879 23.284 82.0799 23.428C82.0799 23.572 82.0759 23.728 82.0679 23.896C82.0519 23.984 82.0519 24.156 82.0679 24.412V24.616C82.0679 24.656 82.0479 24.736 82.0079 24.856C81.9519 24.968 81.9239 25.056 81.9239 25.12C81.9239 25.184 81.9399 25.26 81.9719 25.348C82.0199 25.468 82.0439 25.552 82.0439 25.6C82.0519 25.704 82.0559 25.832 82.0559 25.984C82.0639 26.136 82.0639 26.312 82.0559 26.512V26.836C82.0559 27.124 82.0319 27.404 81.9839 27.676C81.9439 27.868 81.8479 27.964 81.6959 27.964C81.2479 27.964 80.9319 27.788 80.7479 27.436C80.5159 26.988 80.2159 26.644 79.8479 26.404C79.7839 26.348 79.7319 26.288 79.6919 26.224C79.4839 25.848 79.1719 25.46 78.7559 25.06C78.6999 25.004 78.6399 24.952 78.5759 24.904C78.5199 24.856 78.4599 24.804 78.3959 24.748C78.3159 24.692 78.2639 24.644 78.2399 24.604L78.0359 24.328C77.9479 24.216 77.8719 24.12 77.8079 24.04C77.7519 23.952 77.7079 23.888 77.6759 23.848C77.4759 23.584 77.3359 23.368 77.2559 23.2C77.2319 23.144 77.1599 23.092 77.0399 23.044C76.9039 22.988 76.7479 22.86 76.5719 22.66L76.4639 22.564C76.3599 22.484 76.2999 22.42 76.2839 22.372L76.2479 22.228C76.2319 22.14 76.2079 22.084 76.1759 22.06C76.0879 21.996 76.0159 21.964 75.9599 21.964C75.9119 21.964 75.8879 22 75.8879 22.072ZM92.556 22.492C92.676 22.988 92.736 23.388 92.736 23.692C92.728 23.884 92.712 24.08 92.688 24.28C92.672 24.48 92.644 24.684 92.604 24.892C92.58 25.004 92.56 25.096 92.544 25.168C92.528 25.24 92.516 25.296 92.508 25.336C92.476 25.552 92.408 25.78 92.304 26.02C92.168 26.332 91.956 26.592 91.668 26.8C91.636 26.824 91.6 26.868 91.56 26.932C91.536 26.988 91.516 27.024 91.5 27.04C91.3 27.328 91.06 27.524 90.78 27.628C90.62 27.684 90.42 27.768 90.18 27.88L89.784 28.06C89.536 28.172 89.328 28.228 89.16 28.228H88.944C88.856 28.22 88.776 28.216 88.704 28.216C88.64 28.216 88.576 28.216 88.512 28.216C88.44 28.216 88.376 28.216 88.32 28.216C88.272 28.224 88.228 28.232 88.188 28.24C88.148 28.248 88.092 28.252 88.02 28.252C87.516 28.252 86.996 28.108 86.46 27.82C86.356 27.764 86.24 27.696 86.112 27.616C85.992 27.536 85.856 27.444 85.704 27.34L85.416 27.136C85.008 26.864 84.704 26.376 84.504 25.672C84.496 25.64 84.484 25.6 84.468 25.552C84.452 25.504 84.432 25.448 84.408 25.384C84.232 24.856 84.144 24.348 84.144 23.86C84.144 23.396 84.196 22.992 84.3 22.648C84.388 22.336 84.596 21.972 84.924 21.556C85.068 21.372 85.228 21.196 85.404 21.028C85.588 20.852 85.784 20.684 85.992 20.524C86.28 20.3 86.54 20.16 86.772 20.104C87.556 19.92 88.124 19.828 88.476 19.828C88.708 19.828 88.952 19.848 89.208 19.888C89.472 19.92 89.752 19.968 90.048 20.032C90.304 20.096 90.564 20.232 90.828 20.44C91.812 21.176 92.388 21.86 92.556 22.492ZM90.552 26.44C90.96 25.832 91.164 25.128 91.164 24.328C91.164 23.92 91.112 23.532 91.008 23.164C90.856 22.644 90.64 22.108 90.36 21.556C90.304 21.436 90.16 21.296 89.928 21.136C89.792 21.056 89.708 20.996 89.676 20.956C89.228 20.604 88.78 20.428 88.332 20.428C88.188 20.428 88.072 20.412 87.984 20.38C87.912 20.356 87.852 20.344 87.804 20.344C87.676 20.344 87.536 20.408 87.384 20.536C87.32 20.592 87.236 20.664 87.132 20.752C87.036 20.832 86.924 20.928 86.796 21.04L86.412 21.376C86.196 21.56 86.032 21.876 85.92 22.324C85.824 22.732 85.776 23.156 85.776 23.596C85.776 23.836 85.824 24.22 85.92 24.748C86.152 25.836 86.56 26.6 87.144 27.04C87.616 27.408 88.088 27.592 88.56 27.592C89.032 27.592 89.388 27.544 89.628 27.448C89.86 27.36 90.168 27.024 90.552 26.44ZM99.5998 25.324C99.5758 25.268 99.5518 25.24 99.5278 25.24C99.4638 25.24 99.4038 25.304 99.3478 25.432C99.1798 25.768 99.0198 26.088 98.8678 26.392C98.7158 26.696 98.5718 26.988 98.4358 27.268L98.3758 27.424C98.3198 27.624 98.2478 27.76 98.1598 27.832C98.0398 27.928 97.9158 27.976 97.7878 27.976C97.6118 27.976 97.4598 27.888 97.3318 27.712C97.1718 27.496 97.0158 27.156 96.8638 26.692C96.8078 26.532 96.7598 26.392 96.7198 26.272C96.6798 26.152 96.6438 26.06 96.6118 25.996C96.5238 25.812 96.4238 25.588 96.3118 25.324C96.1998 25.06 96.0758 24.752 95.9398 24.4C95.8358 24.152 95.7438 23.944 95.6638 23.776C95.5918 23.6 95.5358 23.456 95.4958 23.344C95.4878 23.336 95.4838 23.328 95.4838 23.32C95.4838 23.312 95.4798 23.3 95.4718 23.284C95.4398 23.22 95.4158 23.168 95.3998 23.128C95.3918 23.088 95.3838 23.052 95.3758 23.02C95.3358 22.772 95.2038 22.472 94.9798 22.12C94.8038 21.864 94.6918 21.628 94.6438 21.412C94.5558 21.052 94.2998 20.78 93.8758 20.596C93.8678 20.588 93.8598 20.584 93.8518 20.584C93.8438 20.584 93.8318 20.58 93.8158 20.572C93.6238 20.492 93.4758 20.42 93.3718 20.356C93.2998 20.324 93.2638 20.28 93.2638 20.224C93.2638 20.184 93.2958 20.12 93.3598 20.032C93.4638 19.904 93.5918 19.84 93.7438 19.84C93.9438 19.848 94.1398 19.848 94.3318 19.84C94.3638 19.84 94.3958 19.848 94.4278 19.864C94.4598 19.888 94.5118 19.892 94.5838 19.876C94.7598 19.82 95.0158 19.792 95.3518 19.792C95.6478 19.792 96.0118 19.848 96.4438 19.96C96.4518 19.96 96.4798 19.968 96.5278 19.984C96.5838 20.008 96.6238 20.02 96.6478 20.02C96.6718 20.02 96.7038 19.996 96.7438 19.948C96.8238 19.804 96.9318 19.732 97.0678 19.732C97.1558 19.732 97.2518 19.748 97.3558 19.78L97.5718 19.828C97.6918 19.852 97.8638 19.864 98.0878 19.864H98.5558C98.6918 19.856 98.8078 19.852 98.9038 19.852C98.9998 19.852 99.0798 19.852 99.1438 19.852H99.2998C99.4278 19.844 99.5278 19.844 99.5998 19.852C99.7678 19.868 99.8518 19.92 99.8518 20.008C99.8518 20.08 99.8318 20.164 99.7918 20.26C99.7038 20.404 99.5998 20.476 99.4798 20.476C99.3838 20.476 99.3198 20.504 99.2878 20.56C99.2478 20.624 99.2478 20.7 99.2878 20.788L99.4318 21.196L99.7318 22.012C99.8198 22.22 99.9078 22.324 99.9958 22.324C100.1 22.324 100.152 22.208 100.152 21.976C100.152 21.832 100.216 21.628 100.344 21.364C100.408 21.228 100.476 21.012 100.548 20.716C100.588 20.548 100.544 20.436 100.416 20.38C100.4 20.364 100.372 20.352 100.332 20.344C100.276 20.328 100.232 20.312 100.2 20.296C100.176 20.28 100.156 20.268 100.14 20.26C100.02 20.204 99.9598 20.132 99.9598 20.044C99.9598 19.94 100.028 19.864 100.164 19.816L100.236 19.78C100.308 19.748 100.376 19.732 100.44 19.732C100.472 19.732 100.508 19.732 100.548 19.732C100.588 19.732 100.64 19.736 100.704 19.744C100.776 19.752 100.84 19.756 100.896 19.756C100.952 19.756 101 19.756 101.04 19.756C101.08 19.756 101.12 19.756 101.16 19.756C101.208 19.756 101.26 19.76 101.316 19.768C101.38 19.776 101.436 19.78 101.484 19.78C101.532 19.78 101.572 19.78 101.604 19.78C101.652 19.78 101.708 19.78 101.772 19.78C101.836 19.772 101.908 19.764 101.988 19.756C102.028 19.748 102.06 19.744 102.084 19.744C102.116 19.744 102.14 19.744 102.156 19.744C102.372 19.744 102.48 19.832 102.48 20.008C102.48 20.12 102.428 20.212 102.324 20.284L102.216 20.356L102.048 20.5C101.936 20.588 101.84 20.668 101.76 20.74C101.688 20.804 101.632 20.864 101.592 20.92C101.344 21.192 101.196 21.48 101.148 21.784C101.132 21.896 101.072 22.016 100.968 22.144C100.824 22.296 100.668 22.556 100.5 22.924C100.468 22.98 100.444 23.024 100.428 23.056C100.42 23.088 100.412 23.112 100.404 23.128C100.364 23.224 100.344 23.308 100.344 23.38C100.344 23.444 100.364 23.528 100.404 23.632L100.98 24.952C101.012 25.016 101.048 25.068 101.088 25.108C101.16 25.156 101.216 25.228 101.256 25.324C101.264 25.34 101.268 25.384 101.268 25.456C101.276 25.488 101.28 25.524 101.28 25.564C101.288 25.636 101.312 25.708 101.352 25.78C101.368 25.796 101.376 25.808 101.376 25.816C101.424 25.904 101.468 25.948 101.508 25.948C101.58 25.948 101.672 25.7 101.784 25.204C101.8 25.164 101.82 25.104 101.844 25.024C101.876 24.936 101.92 24.832 101.976 24.712L102.264 24.016L102.492 23.416L102.756 22.72L102.972 22.156C103.036 21.972 103.092 21.812 103.14 21.676C103.196 21.54 103.244 21.428 103.284 21.34C103.292 21.332 103.304 21.3 103.32 21.244C103.384 21.06 103.428 20.96 103.452 20.944C103.548 20.848 103.528 20.752 103.392 20.656C103.288 20.568 103.164 20.484 103.02 20.404C102.852 20.324 102.768 20.18 102.768 19.972C102.768 19.82 102.916 19.744 103.212 19.744C103.276 19.744 103.328 19.748 103.368 19.756C103.416 19.756 103.46 19.76 103.5 19.768C103.58 19.784 103.648 19.792 103.704 19.792C103.776 19.792 103.848 19.792 103.92 19.792C104 19.792 104.084 19.788 104.172 19.78C104.276 19.772 104.372 19.768 104.46 19.768C104.556 19.76 104.648 19.756 104.736 19.756C104.944 19.756 105.168 19.808 105.408 19.912C105.512 19.944 105.564 20.016 105.564 20.128C105.564 20.192 105.508 20.26 105.396 20.332C105.364 20.348 105.324 20.372 105.276 20.404C105.236 20.428 105.184 20.456 105.12 20.488C104.92 20.584 104.784 20.66 104.712 20.716C104.608 20.788 104.52 20.9 104.448 21.052L103.968 22.18L103.416 23.476C103.376 23.564 103.328 23.672 103.272 23.8C103.224 23.928 103.16 24.072 103.08 24.232L102.96 24.508L102.732 25.036L102.468 25.648C102.468 25.664 102.464 25.676 102.456 25.684C102.432 25.756 102.408 25.804 102.384 25.828C102.232 25.988 102.116 26.24 102.036 26.584C101.996 26.72 101.96 26.832 101.928 26.92C101.904 27.008 101.884 27.076 101.868 27.124C101.748 27.436 101.604 27.712 101.436 27.952C101.324 28.088 101.208 28.156 101.088 28.156C100.96 28.156 100.856 28.068 100.776 27.892C100.432 27.172 100.192 26.612 100.056 26.212C100.024 26.092 99.9438 25.936 99.8158 25.744C99.7038 25.568 99.6318 25.432 99.5998 25.336V25.324ZM96.5638 20.272C96.4838 20.272 96.3438 20.328 96.1438 20.44L96.0598 20.488C95.9158 20.568 95.8918 20.684 95.9878 20.836C96.1958 21.132 96.3318 21.412 96.3958 21.676C96.4118 21.764 96.4398 21.86 96.4798 21.964C96.5198 22.068 96.5718 22.184 96.6358 22.312C96.8278 22.632 96.9118 22.892 96.8878 23.092C96.8718 23.188 96.8878 23.268 96.9358 23.332C97.0878 23.556 97.2518 23.9 97.4278 24.364L97.5838 24.748L97.7038 25C97.8078 25.256 97.9038 25.46 97.9918 25.612C98.0878 25.804 98.1518 25.9 98.1838 25.9C98.2158 25.9 98.2518 25.864 98.2918 25.792L98.4238 25.504C98.5358 25.248 98.6798 24.956 98.8558 24.628C98.8558 24.62 98.8598 24.612 98.8678 24.604C98.9238 24.5 98.9638 24.42 98.9878 24.364C99.0118 24.3 99.0278 24.256 99.0358 24.232C99.0358 24.032 98.9438 23.716 98.7598 23.284C98.6398 23.004 98.4278 22.592 98.1238 22.048L98.0878 21.988C97.9998 21.836 97.9518 21.704 97.9438 21.592C97.9438 21.312 97.8198 21 97.5718 20.656C97.4998 20.536 97.3918 20.476 97.2478 20.476C96.9918 20.468 96.8238 20.432 96.7438 20.368C96.7358 20.36 96.7278 20.356 96.7198 20.356C96.7118 20.348 96.7038 20.336 96.6958 20.32C96.6638 20.288 96.6198 20.272 96.5638 20.272Z" fill="white"/>
</svg>
