<svg width="27" height="31" viewBox="0 0 27 31" fill="none" xmlns="http://www.w3.org/2000/svg">
<path d="M26.996 19.9771C26.9927 19.0777 26.7194 18.2 26.2114 17.4575C25.7033 16.715 24.984 16.1418 24.1464 15.812L26.951 5.32434C27.0096 5.10098 27.0157 4.86712 26.9689 4.64101C26.9221 4.4149 26.8236 4.20267 26.6811 4.02087C26.5354 3.85053 26.3533 3.715 26.1483 3.62424C25.9432 3.53349 25.7204 3.48984 25.4962 3.49649H4.94927L4.45434 1.60871C4.36829 1.28945 4.17895 1.00759 3.91581 0.807056C3.65267 0.606518 3.33052 0.498563 2.99956 0.500014H0V3.49649H1.84473L5.56418 17.3702C5.65207 17.697 5.84814 17.9845 6.12048 18.1858C6.39282 18.3872 6.72536 18.4904 7.06396 18.4789H22.4967C22.8944 18.4789 23.2759 18.6367 23.5572 18.9177C23.8384 19.1987 23.9965 19.5797 23.9965 19.9771C23.9965 20.3745 23.8384 20.7555 23.5572 21.0365C23.2759 21.3175 22.8944 21.4753 22.4967 21.4753H2.99956C2.60179 21.4753 2.22032 21.6332 1.93905 21.9142C1.65779 22.1951 1.49978 22.5762 1.49978 22.9736C1.49978 23.3709 1.65779 23.752 1.93905 24.033C2.22032 24.314 2.60179 24.4718 2.99956 24.4718H4.76929C4.52263 25.1507 4.44337 25.879 4.53822 26.595C4.63308 27.311 4.89924 27.9936 5.31419 28.585C5.72914 29.1764 6.28064 29.6593 6.92201 29.9926C7.56337 30.326 8.2757 30.5 8.99867 30.5C9.72164 30.5 10.434 30.326 11.0753 29.9926C11.7167 29.6593 12.2682 29.1764 12.6831 28.585C13.0981 27.9936 13.3643 27.311 13.4591 26.595C13.554 25.879 13.4747 25.1507 13.228 24.4718H16.7675C16.543 25.09 16.457 25.7499 16.5155 26.4049C16.5741 27.0599 16.7759 27.6941 17.1065 28.2627C17.4372 28.8313 17.8888 29.3205 18.4293 29.6958C18.9699 30.0711 19.5863 30.3234 20.2351 30.4347C20.8839 30.5461 21.5493 30.5139 22.1842 30.3403C22.8192 30.1668 23.4083 29.8562 23.91 29.4305C24.4117 29.0047 24.8138 28.4742 25.0879 27.8763C25.3619 27.2784 25.5013 26.6276 25.4962 25.97C25.4934 25.196 25.2865 24.4364 24.8963 23.7676C25.5377 23.3637 26.0664 22.8044 26.4335 22.1418C26.8006 21.4791 26.9941 20.7345 26.996 19.9771ZM21.1319 15.4824H8.24878L5.75915 6.49296H23.5465L21.1319 15.4824ZM8.99867 27.4683C8.70204 27.4683 8.41208 27.3804 8.16544 27.2158C7.9188 27.0512 7.72657 26.8172 7.61306 26.5434C7.49954 26.2696 7.46984 25.9684 7.52771 25.6778C7.58558 25.3871 7.72842 25.1202 7.93817 24.9106C8.14791 24.7011 8.41515 24.5584 8.70608 24.5006C8.99701 24.4428 9.29856 24.4725 9.57261 24.5859C9.84666 24.6993 10.0809 24.8913 10.2457 25.1377C10.4105 25.3841 10.4984 25.6737 10.4984 25.97C10.4984 26.3674 10.3404 26.7485 10.0592 27.0295C9.77791 27.3104 9.39644 27.4683 8.99867 27.4683ZM20.9969 27.4683C20.7003 27.4683 20.4103 27.3804 20.1637 27.2158C19.917 27.0512 19.7248 26.8172 19.6113 26.5434C19.4978 26.2696 19.4681 25.9684 19.5259 25.6778C19.5838 25.3871 19.7266 25.1202 19.9364 24.9106C20.1461 24.7011 20.4134 24.5584 20.7043 24.5006C20.9952 24.4428 21.2968 24.4725 21.5708 24.5859C21.8449 24.6993 22.0791 24.8913 22.2439 25.1377C22.4087 25.3841 22.4967 25.6737 22.4967 25.97C22.4967 26.3674 22.3387 26.7485 22.0574 27.0295C21.7761 27.3104 21.3947 27.4683 20.9969 27.4683Z" fill="white"/>
</svg>
