<svg width="26" height="27" viewBox="0 0 26 27" fill="none" xmlns="http://www.w3.org/2000/svg">
<path d="M13.3998 26.1C6.44981 26.1 0.799805 20.45 0.799805 13.5C0.799805 6.55002 6.44981 0.900024 13.3998 0.900024C20.3498 0.900024 25.9998 6.55002 25.9998 13.5C25.9998 20.45 20.3498 26.1 13.3998 26.1ZM13.3998 1.64002C6.85981 1.64002 1.53981 6.96002 1.53981 13.5C1.53981 20.04 6.85981 25.36 13.3998 25.36C19.9398 25.36 25.2598 20.04 25.2598 13.5C25.2598 6.96002 19.9398 1.64002 13.3998 1.64002Z" fill="white"/>
<path d="M19.5257 10.3701C19.377 9.81007 18.9409 9.36007 18.386 9.22007C17.385 8.95007 13.3615 8.95007 13.3615 8.95007C13.3615 8.95007 9.33788 8.95007 8.33695 9.22007C7.78197 9.37007 7.34592 9.81007 7.19727 10.3701C6.92969 11.3901 6.92969 13.5101 6.92969 13.5101C6.92969 13.5101 6.92969 15.6301 7.19727 16.6501C7.34592 17.2101 7.78197 17.6401 8.33695 17.7901C9.33788 18.0601 13.3615 18.0601 13.3615 18.0601C13.3615 18.0601 17.385 18.0601 18.386 17.7901C18.9409 17.6401 19.377 17.2101 19.5257 16.6501C19.7932 15.6301 19.7932 13.5101 19.7932 13.5101C19.7932 13.5101 19.7932 11.3901 19.5257 10.3701ZM12.0434 15.4401V11.5801L15.403 13.5101L12.0434 15.4401Z" fill="white"/>
</svg>
