<svg width="26" height="27" viewBox="0 0 26 27" fill="none" xmlns="http://www.w3.org/2000/svg">
<path d="M12.6 26.1C5.65 26.1 0 20.45 0 13.5C0 6.55002 5.65 0.900024 12.6 0.900024C19.55 0.900024 25.2 6.55002 25.2 13.5C25.2 20.45 19.55 26.1 12.6 26.1ZM12.6 1.64002C6.06 1.64002 0.739998 6.96002 0.739998 13.5C0.739998 20.04 6.06 25.36 12.6 25.36C19.14 25.36 24.46 20.04 24.46 13.5C24.46 6.96002 19.14 1.64002 12.6 1.64002Z" fill="white"/>
<path d="M16.136 7.94006H18.009L13.926 12.6501L18.7325 19.0601H14.9765L12.0331 15.1801L8.66363 19.0601H6.79059L11.161 14.0201L6.55273 7.94006H10.4078L13.0638 11.4901L16.1459 7.94006H16.136ZM15.4819 17.9301H16.5126L9.83304 9.01006H8.72309L15.4819 17.9301Z" fill="white"/>
</svg>
