<svg width="26" height="27" viewBox="0 0 26 27" fill="none" xmlns="http://www.w3.org/2000/svg">
<path d="M12.7992 26.1C5.84922 26.1 0.199219 20.45 0.199219 13.5C0.199219 6.55002 5.84922 0.900024 12.7992 0.900024C19.7492 0.900024 25.3992 6.55002 25.3992 13.5C25.3992 20.45 19.7492 26.1 12.7992 26.1ZM12.7992 1.64002C6.25922 1.64002 0.939219 6.96002 0.939219 13.5C0.939219 20.04 6.25922 25.36 12.7992 25.36C19.3392 25.36 24.6592 20.04 24.6592 13.5C24.6592 6.96002 19.3392 1.64002 12.7992 1.64002Z" fill="white"/>
<path d="M17.3867 5.90002C18.1615 5.90002 18.8239 6.17509 19.374 6.72522C19.9242 7.27535 20.1992 7.93778 20.1992 8.71252V18.0875C20.1992 18.8623 19.9242 19.5247 19.374 20.0748C18.8239 20.625 18.1615 20.9 17.3867 20.9H15.5508V15.0895H17.4941L17.7871 12.8239H15.5508V11.3785C15.5508 11.014 15.6273 10.7405 15.7803 10.5582C15.9333 10.3759 16.2311 10.2848 16.6738 10.2848L17.8652 10.275V8.25354C17.4551 8.19495 16.8757 8.16565 16.127 8.16565C15.2415 8.16565 14.5335 8.42607 14.0029 8.9469C13.4723 9.46773 13.207 10.2034 13.207 11.1539V12.8239H11.2539V15.0895H13.207V20.9H8.01172C7.23698 20.9 6.57454 20.625 6.02441 20.0748C5.47428 19.5247 5.19922 18.8623 5.19922 18.0875V8.71252C5.19922 7.93778 5.47428 7.27535 6.02441 6.72522C6.57454 6.17509 7.23698 5.90002 8.01172 5.90002H17.3867Z" fill="white"/>
</svg>
