<svg width="26" height="27" viewBox="0 0 26 27" fill="none" xmlns="http://www.w3.org/2000/svg">
<path d="M13.1997 10.09C11.3097 10.09 9.78969 11.61 9.78969 13.5C9.78969 15.39 11.3097 16.91 13.1997 16.91C15.0897 16.91 16.6097 15.39 16.6097 13.5C16.6097 11.61 15.0897 10.09 13.1997 10.09ZM13.1997 15.72C11.9797 15.72 10.9797 14.73 10.9797 13.5C10.9797 12.27 11.9697 11.28 13.1997 11.28C14.4297 11.28 15.4197 12.27 15.4197 13.5C15.4197 14.73 14.4197 15.72 13.1997 15.72ZM17.5497 9.94998C17.5497 10.39 17.1897 10.75 16.7497 10.75C16.3097 10.75 15.9497 10.39 15.9497 9.94998C15.9497 9.50998 16.3097 9.14998 16.7497 9.14998C17.1897 9.14998 17.5497 9.50998 17.5497 9.94998ZM19.8097 10.76C19.7597 9.68998 19.5197 8.74998 18.7397 7.96998C17.9597 7.18998 17.0197 6.94998 15.9497 6.89998C14.8497 6.83998 11.5597 6.83998 10.4597 6.89998C9.39969 6.94998 8.44969 7.18998 7.66969 7.96998C6.88969 8.74998 6.64969 9.68998 6.59969 10.76C6.53969 11.86 6.53969 15.15 6.59969 16.25C6.64969 17.32 6.88969 18.26 7.66969 19.04C8.44969 19.82 9.38969 20.06 10.4597 20.11C11.5597 20.17 14.8497 20.17 15.9497 20.11C17.0197 20.06 17.9597 19.82 18.7397 19.04C19.5197 18.26 19.7597 17.32 19.8097 16.25C19.8697 15.15 19.8697 11.86 19.8097 10.76ZM18.3897 17.42C18.1597 18 17.7097 18.45 17.1297 18.68C16.2497 19.03 14.1797 18.95 13.2097 18.95C12.2397 18.95 10.1597 19.03 9.28969 18.68C8.70969 18.45 8.25969 18 8.02969 17.42C7.67969 16.54 7.75969 14.47 7.75969 13.5C7.75969 12.53 7.67969 10.45 8.02969 9.57998C8.25969 8.99998 8.70969 8.54998 9.28969 8.31998C10.1697 7.96998 12.2397 8.04998 13.2097 8.04998C14.1797 8.04998 16.2597 7.96998 17.1297 8.31998C17.7097 8.54998 18.1597 8.99998 18.3897 9.57998C18.7397 10.46 18.6597 12.53 18.6597 13.5C18.6597 14.47 18.7397 16.55 18.3897 17.42Z" fill="white"/>
<path d="M13.1996 26.1C6.24961 26.1 0.599609 20.45 0.599609 13.5C0.599609 6.55002 6.24961 0.900024 13.1996 0.900024C20.1496 0.900024 25.7996 6.55002 25.7996 13.5C25.7996 20.45 20.1496 26.1 13.1996 26.1ZM13.1996 1.64002C6.65961 1.64002 1.33961 6.96002 1.33961 13.5C1.33961 20.04 6.65961 25.36 13.1996 25.36C19.7396 25.36 25.0596 20.04 25.0596 13.5C25.0596 6.96002 19.7396 1.64002 13.1996 1.64002Z" fill="white"/>
</svg>
