<?xml version="1.0" encoding="UTF-8"?>
<svg id="Layer_2" data-name="Layer 2" xmlns="http://www.w3.org/2000/svg" viewBox="0 0 18.01 18.01">
  <defs>
    <style>
      .cls-1 {
        fill: #fff;
      }
    </style>
  </defs>
  <g id="Layer_1-2" data-name="Layer 1">
    <path class="cls-1" d="M17.71,16.29l-3.4-3.39c1.1-1.4,1.69-3.12,1.69-4.9,0-1.58-.47-3.13-1.35-4.44-.88-1.32-2.13-2.34-3.59-2.95C9.6,0,7.99-.15,6.44,.15c-1.55,.31-2.98,1.07-4.1,2.19C1.22,3.46,.46,4.89,.15,6.44-.15,7.99,0,9.6,.61,11.06c.61,1.46,1.63,2.71,2.95,3.59,1.32,.88,2.86,1.35,4.44,1.35,1.78,0,3.5-.59,4.9-1.69l3.39,3.4c.09,.09,.2,.17,.33,.22,.12,.05,.25,.08,.38,.08s.26-.03,.38-.08c.12-.05,.23-.13,.33-.22,.09-.09,.17-.2,.22-.33,.05-.12,.08-.25,.08-.38s-.03-.26-.08-.38c-.05-.12-.13-.23-.22-.33ZM2,8c0-1.19,.35-2.35,1.01-3.33,.66-.99,1.6-1.76,2.69-2.21,1.1-.45,2.3-.57,3.47-.34,1.16,.23,2.23,.8,3.07,1.64,.84,.84,1.41,1.91,1.64,3.07,.23,1.16,.11,2.37-.34,3.47-.45,1.1-1.22,2.03-2.21,2.69s-2.15,1.01-3.33,1.01c-1.59,0-3.12-.63-4.24-1.76-1.13-1.13-1.76-2.65-1.76-4.24Z"/>
  </g>
</svg>