<svg width="26" height="26" viewBox="0 0 26 26" fill="none" xmlns="http://www.w3.org/2000/svg">
<path d="M12.6 25.2C5.65 25.2 0 19.55 0 12.6C0 5.65 5.65 0 12.6 0C19.55 0 25.2 5.65 25.2 12.6C25.2 19.55 19.55 25.2 12.6 25.2ZM12.6 0.74C6.06 0.74 0.74 6.06 0.74 12.6C0.74 19.14 6.06 24.46 12.6 24.46C19.14 24.46 24.46 19.14 24.46 12.6C24.46 6.06 19.14 0.74 12.6 0.74Z" fill="white"/>
<path d="M17.1875 5C17.9622 5 18.6247 5.27507 19.1748 5.8252C19.7249 6.37533 20 7.03776 20 7.8125V17.1875C20 17.9622 19.7249 18.6247 19.1748 19.1748C18.6247 19.7249 17.9622 20 17.1875 20H15.3516V14.1895H17.2949L17.5879 11.9238H15.3516V10.4785C15.3516 10.1139 15.4281 9.84049 15.5811 9.6582C15.734 9.47591 16.0319 9.38477 16.4746 9.38477L17.666 9.375V7.35352C17.2559 7.29492 16.6764 7.26562 15.9277 7.26562C15.0423 7.26562 14.3343 7.52604 13.8037 8.04688C13.2731 8.56771 13.0078 9.30339 13.0078 10.2539V11.9238H11.0547V14.1895H13.0078V20H7.8125C7.03776 20 6.37533 19.7249 5.8252 19.1748C5.27507 18.6247 5 17.9622 5 17.1875V7.8125C5 7.03776 5.27507 6.37533 5.8252 5.8252C6.37533 5.27507 7.03776 5 7.8125 5H17.1875Z" fill="white"/>
</svg>
