<svg width="26" height="26" viewBox="0 0 26 26" fill="none" xmlns="http://www.w3.org/2000/svg">
<path d="M13.0004 25.2C6.05039 25.2 0.400391 19.55 0.400391 12.6C0.400391 5.65 6.05039 0 13.0004 0C19.9504 0 25.6004 5.65 25.6004 12.6C25.6004 19.55 19.9504 25.2 13.0004 25.2ZM13.0004 0.74C6.46039 0.74 1.14039 6.06 1.14039 12.6C1.14039 19.14 6.46039 24.46 13.0004 24.46C19.5404 24.46 24.8604 19.14 24.8604 12.6C24.8604 6.06 19.5404 0.74 13.0004 0.74Z" fill="white"/>
<path d="M16.5364 7.04004H18.4094L14.3264 11.75L19.1329 18.16H15.3769L12.4335 14.28L9.06402 18.16H7.19098L11.5614 13.12L6.95312 7.04004H10.8082L13.4642 10.59L16.5463 7.04004H16.5364ZM15.8823 17.03H16.913L10.2334 8.11004H9.12348L15.8823 17.03Z" fill="white"/>
</svg>
