<svg width="26" height="26" viewBox="0 0 26 26" fill="none" xmlns="http://www.w3.org/2000/svg">
<path d="M13.1996 25.2C6.24961 25.2 0.599609 19.55 0.599609 12.6C0.599609 5.65 6.24961 0 13.1996 0C20.1496 0 25.7996 5.65 25.7996 12.6C25.7996 19.55 20.1496 25.2 13.1996 25.2ZM13.1996 0.74C6.65961 0.74 1.33961 6.06 1.33961 12.6C1.33961 19.14 6.65961 24.46 13.1996 24.46C19.7396 24.46 25.0596 19.14 25.0596 12.6C25.0596 6.06 19.7396 0.74 13.1996 0.74Z" fill="black"/>
<path d="M17.7871 5C18.5618 5 19.2243 5.27507 19.7744 5.8252C20.3245 6.37533 20.5996 7.03776 20.5996 7.8125V17.1875C20.5996 17.9622 20.3245 18.6247 19.7744 19.1748C19.2243 19.7249 18.5618 20 17.7871 20H15.9512V14.1895H17.8945L18.1875 11.9238H15.9512V10.4785C15.9512 10.1139 16.0277 9.84049 16.1807 9.6582C16.3337 9.47591 16.6315 9.38477 17.0742 9.38477L18.2656 9.375V7.35352C17.8555 7.29492 17.276 7.26562 16.5273 7.26562C15.6419 7.26562 14.9339 7.52604 14.4033 8.04688C13.8727 8.56771 13.6074 9.30339 13.6074 10.2539V11.9238H11.6543V14.1895H13.6074V20H8.41211C7.63737 20 6.97493 19.7249 6.4248 19.1748C5.87467 18.6247 5.59961 17.9622 5.59961 17.1875V7.8125C5.59961 7.03776 5.87467 6.37533 6.4248 5.8252C6.97493 5.27507 7.63737 5 8.41211 5H17.7871Z" fill="black"/>
</svg>
