<?xml version="1.0" encoding="UTF-8"?>
<svg id="Layer_2" data-name="Layer 2" xmlns="http://www.w3.org/2000/svg" viewBox="0 0 16 16">
  <defs>
    <style>
      .cls-1 {
        fill: #ab0000;
      }
    </style>
  </defs>
  <g id="Layer_1-2" data-name="Layer 1">
    <path class="cls-1" d="M15.93,6.01c-.08-.24-.22-.46-.4-.63-.19-.17-.42-.27-.66-.31l-3.94-.61-1.75-3.7c-.22-.47-.68-.77-1.18-.77s-.96,.29-1.18,.77l-1.78,3.72-3.91,.59c-.24,.04-.47,.14-.66,.31-.19,.17-.33,.38-.4,.63-.08,.24-.09,.51-.03,.75,.06,.25,.18,.48,.36,.65l2.84,2.91-.67,4.06c-.04,.25-.02,.51,.08,.75,.09,.24,.25,.44,.45,.59,.2,.15,.43,.24,.68,.26,.25,.02,.49-.04,.71-.16l3.53-1.92,3.5,1.92c.19,.11,.4,.16,.61,.16,.28,0,.55-.09,.78-.26,.2-.15,.35-.36,.45-.59,.09-.24,.12-.5,.08-.75l-.66-4.1,2.83-2.88c.18-.18,.3-.41,.36-.65,.06-.25,.05-.51-.03-.75Zm-4.06,3.33c-.15,.16-.27,.35-.33,.56-.07,.21-.08,.44-.05,.66l.67,4.06-.06,.04-3.5-1.92c-.19-.1-.4-.16-.61-.16V1.33s.03,.01,.03,.02l1.75,3.7c.09,.2,.23,.37,.41,.5,.17,.13,.37,.22,.59,.25l3.91,.59,.02,.07-2.83,2.88Z"/>
  </g>
</svg>