<?xml version="1.0" encoding="UTF-8"?>
<svg id="Layer_2" data-name="Layer 2" xmlns="http://www.w3.org/2000/svg" viewBox="0 0 16 16">
  <defs>
    <style>
      .cls-1 {
        fill: #ab0000;
      }
    </style>
  </defs>
  <g id="Layer_1-2" data-name="Layer 1">
    <path class="cls-1" d="M12.13,16c-.21,0-.42-.05-.61-.16l-3.5-1.92-3.53,1.92c-.22,.12-.46,.17-.71,.16-.25-.02-.48-.11-.68-.26-.2-.15-.35-.36-.45-.59-.09-.24-.12-.5-.08-.75l.67-4.06L.4,7.42c-.18-.18-.3-.41-.36-.65-.06-.25-.05-.51,.03-.75,.08-.24,.22-.46,.4-.63,.19-.17,.42-.27,.66-.31l3.91-.59L6.82,.77c.22-.47,.68-.77,1.18-.77s.96,.29,1.18,.77l1.75,3.69,3.94,.61c.24,.04,.47,.14,.66,.31,.19,.17,.33,.38,.4,.63,.08,.24,.09,.51,.03,.75-.06,.25-.18,.48-.36,.65l-2.83,2.88,.66,4.1c.04,.25,.02,.51-.08,.75-.09,.24-.25,.44-.45,.59-.23,.17-.5,.26-.77,.26ZM1.29,6.46l2.83,2.88c.31,.32,.45,.77,.38,1.22l-.67,4.06,.35,.63-.3-.59,3.5-1.92c.19-.1,.4-.16,.61-.16,.21,0,.42,.05,.61,.16l3.5,1.92,.06-.04-.67-4.06c-.04-.22-.02-.45,.05-.66,.07-.21,.18-.4,.33-.56l2.83-2.88-.02-.07-3.91-.59c-.21-.03-.41-.12-.59-.25-.17-.13-.31-.3-.41-.5l-1.75-3.69s-.01-.02-.03-.02l-1.78,3.72c-.09,.2-.23,.37-.41,.5-.17,.13-.37,.22-.58,.25l-3.91,.59-.47,.55,.45-.48Z"/>
  </g>
</svg>